<?xml version="1.0" encoding="UTF-8"?>
<!DOCTYPE svg PUBLIC "-//W3C//DTD SVG 1.1//EN" "http://www.w3.org/Graphics/SVG/1.1/DTD/svg11.dtd">
<svg xmlns="http://www.w3.org/2000/svg" version="1.1" width="547px" height="519px" style="shape-rendering:geometricPrecision; text-rendering:geometricPrecision; image-rendering:optimizeQuality; fill-rule:evenodd; clip-rule:evenodd" xmlns:xlink="http://www.w3.org/1999/xlink">
<g><path style="opacity:0.504" fill="#cf2c30" d="M 328.5,-0.5 C 329.833,-0.5 331.167,-0.5 332.5,-0.5C 421.525,17.091 485.691,66.7576 525,148.5C 538.395,181.312 545.561,215.312 546.5,250.5C 546.5,254.833 546.5,259.167 546.5,263.5C 544.003,350.67 507.669,419.836 437.5,471C 395.433,499.3 349.099,515.134 298.5,518.5C 281.5,518.5 264.5,518.5 247.5,518.5C 154.42,510.834 82.9196,467.834 33,389.5C 13.7627,355.2 2.59605,318.533 -0.5,279.5C -0.5,272.833 -0.5,266.167 -0.5,259.5C 50.1667,259.5 100.833,259.5 151.5,259.5C 151.834,306.346 171.167,342.846 209.5,369C 239.729,385.746 271.729,390.08 305.5,382C 349.905,367.927 378.405,338.427 391,293.5C 400.302,254.318 394.968,217.318 375,182.5C 349.982,145.904 315.148,127.57 270.5,127.5C 270.319,118.221 270.986,109.054 272.5,100C 281.848,93.9985 291.181,87.9985 300.5,82C 308.516,81.5227 316.516,80.856 324.5,80C 327.765,76.7963 331.265,73.963 335,71.5C 336.456,66.2456 337.623,60.9123 338.5,55.5C 335.749,44.4872 332.083,33.8205 327.5,23.5C 327.709,22.914 328.043,22.414 328.5,22C 327.833,19.6667 327.167,17.3333 326.5,15C 327.859,9.9615 328.526,4.79483 328.5,-0.5 Z"/></g>
</svg>
